<mxfile host="app.diagrams.net" modified="2020-11-04T00:13:57.545Z" agent="5.0 (Windows NT 10.0; Win64; x64) AppleWebKit/537.36 (KHTML, like Gecko) Chrome/86.0.4240.111 Safari/537.36" etag="7fQeW5IaeMCIRm4ci4G2" version="13.8.8" type="github">
  <diagram id="kgpKYQtTHZ0yAKxKKP6v" name="Page-1">
    <mxGraphModel dx="1736" dy="900" grid="1" gridSize="10" guides="1" tooltips="1" connect="1" arrows="1" fold="1" page="1" pageScale="1" pageWidth="850" pageHeight="1100" math="0" shadow="0">
      <root>
        <mxCell id="0" />
        <mxCell id="1" parent="0" />
        <mxCell id="AtI2IA-iEusaF9VVDeG3-1" value="&lt;font style=&quot;font-size: 24px&quot;&gt;Window&lt;/font&gt;" style="rounded=0;whiteSpace=wrap;html=1;" parent="1" vertex="1">
          <mxGeometry x="320" y="20" width="130" height="50" as="geometry" />
        </mxCell>
        <mxCell id="AtI2IA-iEusaF9VVDeG3-4" value="&lt;font style=&quot;font-size: 24px&quot;&gt;Location&lt;/font&gt;" style="rounded=0;whiteSpace=wrap;html=1;" parent="1" vertex="1">
          <mxGeometry x="150" y="110" width="130" height="50" as="geometry" />
        </mxCell>
        <mxCell id="AtI2IA-iEusaF9VVDeG3-5" value="&lt;font style=&quot;font-size: 24px&quot;&gt;Document&lt;/font&gt;" style="rounded=0;whiteSpace=wrap;html=1;" parent="1" vertex="1">
          <mxGeometry x="320" y="110" width="130" height="50" as="geometry" />
        </mxCell>
        <mxCell id="AtI2IA-iEusaF9VVDeG3-6" value="&lt;font style=&quot;font-size: 24px&quot;&gt;History&lt;/font&gt;" style="rounded=0;whiteSpace=wrap;html=1;" parent="1" vertex="1">
          <mxGeometry x="490" y="110" width="130" height="50" as="geometry" />
        </mxCell>
        <mxCell id="AtI2IA-iEusaF9VVDeG3-20" value="&lt;font style=&quot;font-size: 24px&quot;&gt;&amp;lt;HTML&amp;gt;&lt;/font&gt;" style="rounded=0;whiteSpace=wrap;html=1;" parent="1" vertex="1">
          <mxGeometry x="320" y="200" width="130" height="50" as="geometry" />
        </mxCell>
        <mxCell id="AtI2IA-iEusaF9VVDeG3-23" value="&lt;span style=&quot;font-size: 24px&quot;&gt;&amp;lt;body&amp;gt;&lt;/span&gt;" style="rounded=0;whiteSpace=wrap;html=1;" parent="1" vertex="1">
          <mxGeometry x="320" y="290" width="130" height="50" as="geometry" />
        </mxCell>
        <mxCell id="AtI2IA-iEusaF9VVDeG3-24" value="&lt;font style=&quot;font-size: 24px&quot;&gt;&amp;lt;head&amp;gt;&lt;/font&gt;" style="rounded=0;whiteSpace=wrap;html=1;" parent="1" vertex="1">
          <mxGeometry x="90" y="290" width="130" height="50" as="geometry" />
        </mxCell>
        <mxCell id="AtI2IA-iEusaF9VVDeG3-27" value="" style="endArrow=none;html=1;exitX=0.5;exitY=1;exitDx=0;exitDy=0;entryX=0.5;entryY=0;entryDx=0;entryDy=0;" parent="1" source="AtI2IA-iEusaF9VVDeG3-1" target="AtI2IA-iEusaF9VVDeG3-5" edge="1">
          <mxGeometry width="50" height="50" relative="1" as="geometry">
            <mxPoint x="400" y="240" as="sourcePoint" />
            <mxPoint x="470" y="160" as="targetPoint" />
          </mxGeometry>
        </mxCell>
        <mxCell id="AtI2IA-iEusaF9VVDeG3-28" value="" style="endArrow=none;html=1;exitX=0.5;exitY=0;exitDx=0;exitDy=0;" parent="1" source="AtI2IA-iEusaF9VVDeG3-6" edge="1">
          <mxGeometry width="50" height="50" relative="1" as="geometry">
            <mxPoint x="400" y="240" as="sourcePoint" />
            <mxPoint x="385" y="70" as="targetPoint" />
          </mxGeometry>
        </mxCell>
        <mxCell id="AtI2IA-iEusaF9VVDeG3-29" value="" style="endArrow=none;html=1;exitX=0.5;exitY=0;exitDx=0;exitDy=0;" parent="1" source="AtI2IA-iEusaF9VVDeG3-4" edge="1">
          <mxGeometry width="50" height="50" relative="1" as="geometry">
            <mxPoint x="330" y="120" as="sourcePoint" />
            <mxPoint x="380" y="70" as="targetPoint" />
          </mxGeometry>
        </mxCell>
        <mxCell id="AtI2IA-iEusaF9VVDeG3-30" value="" style="endArrow=none;html=1;entryX=0.5;entryY=1;entryDx=0;entryDy=0;exitX=0.5;exitY=0;exitDx=0;exitDy=0;" parent="1" source="AtI2IA-iEusaF9VVDeG3-20" target="AtI2IA-iEusaF9VVDeG3-5" edge="1">
          <mxGeometry width="50" height="50" relative="1" as="geometry">
            <mxPoint x="400" y="240" as="sourcePoint" />
            <mxPoint x="450" y="190" as="targetPoint" />
          </mxGeometry>
        </mxCell>
        <mxCell id="AtI2IA-iEusaF9VVDeG3-31" value="" style="endArrow=none;html=1;entryX=0.5;entryY=1;entryDx=0;entryDy=0;exitX=0.5;exitY=0;exitDx=0;exitDy=0;" parent="1" source="AtI2IA-iEusaF9VVDeG3-23" target="AtI2IA-iEusaF9VVDeG3-20" edge="1">
          <mxGeometry width="50" height="50" relative="1" as="geometry">
            <mxPoint x="385" y="280" as="sourcePoint" />
            <mxPoint x="450" y="190" as="targetPoint" />
          </mxGeometry>
        </mxCell>
        <mxCell id="AtI2IA-iEusaF9VVDeG3-32" value="" style="endArrow=none;html=1;entryX=0;entryY=0.5;entryDx=0;entryDy=0;exitX=1;exitY=0.5;exitDx=0;exitDy=0;" parent="1" source="AtI2IA-iEusaF9VVDeG3-24" target="AtI2IA-iEusaF9VVDeG3-23" edge="1">
          <mxGeometry width="50" height="50" relative="1" as="geometry">
            <mxPoint x="400" y="240" as="sourcePoint" />
            <mxPoint x="450" y="190" as="targetPoint" />
          </mxGeometry>
        </mxCell>
        <mxCell id="AtI2IA-iEusaF9VVDeG3-33" value="&lt;font style=&quot;font-size: 24px&quot;&gt;&amp;lt;title&amp;gt;&lt;/font&gt;" style="rounded=0;whiteSpace=wrap;html=1;" parent="1" vertex="1">
          <mxGeometry x="90" y="380" width="130" height="50" as="geometry" />
        </mxCell>
        <mxCell id="AtI2IA-iEusaF9VVDeG3-34" value="" style="endArrow=none;html=1;entryX=0.5;entryY=1;entryDx=0;entryDy=0;exitX=0.5;exitY=0;exitDx=0;exitDy=0;" parent="1" source="AtI2IA-iEusaF9VVDeG3-33" target="AtI2IA-iEusaF9VVDeG3-24" edge="1">
          <mxGeometry width="50" height="50" relative="1" as="geometry">
            <mxPoint x="400" y="440" as="sourcePoint" />
            <mxPoint x="450" y="390" as="targetPoint" />
          </mxGeometry>
        </mxCell>
        <mxCell id="AtI2IA-iEusaF9VVDeG3-37" value="&lt;font style=&quot;font-size: 24px&quot;&gt;&amp;lt;link&amp;gt;&lt;/font&gt;" style="rounded=0;whiteSpace=wrap;html=1;" parent="1" vertex="1">
          <mxGeometry x="90" y="470" width="130" height="50" as="geometry" />
        </mxCell>
        <mxCell id="AtI2IA-iEusaF9VVDeG3-38" value="&lt;font style=&quot;font-size: 24px&quot;&gt;&amp;lt;meta&amp;gt;&lt;/font&gt;" style="rounded=0;whiteSpace=wrap;html=1;" parent="1" vertex="1">
          <mxGeometry x="90" y="550" width="130" height="50" as="geometry" />
        </mxCell>
        <mxCell id="AtI2IA-iEusaF9VVDeG3-39" value="" style="endArrow=none;html=1;exitX=0.5;exitY=0;exitDx=0;exitDy=0;entryX=0.5;entryY=1;entryDx=0;entryDy=0;" parent="1" source="AtI2IA-iEusaF9VVDeG3-37" target="AtI2IA-iEusaF9VVDeG3-33" edge="1">
          <mxGeometry width="50" height="50" relative="1" as="geometry">
            <mxPoint x="214.5" y="460" as="sourcePoint" />
            <mxPoint x="220" y="440" as="targetPoint" />
          </mxGeometry>
        </mxCell>
        <mxCell id="AtI2IA-iEusaF9VVDeG3-40" value="" style="endArrow=none;html=1;entryX=0.5;entryY=0;entryDx=0;entryDy=0;exitX=0.5;exitY=1;exitDx=0;exitDy=0;" parent="1" source="AtI2IA-iEusaF9VVDeG3-37" target="AtI2IA-iEusaF9VVDeG3-38" edge="1">
          <mxGeometry width="50" height="50" relative="1" as="geometry">
            <mxPoint x="235" y="400" as="sourcePoint" />
            <mxPoint x="235" y="360" as="targetPoint" />
          </mxGeometry>
        </mxCell>
        <mxCell id="AtI2IA-iEusaF9VVDeG3-41" value="&lt;span style=&quot;font-size: 24px&quot;&gt;&amp;lt;div&amp;gt;&lt;/span&gt;" style="rounded=0;whiteSpace=wrap;html=1;" parent="1" vertex="1">
          <mxGeometry x="320" y="380" width="130" height="50" as="geometry" />
        </mxCell>
        <mxCell id="AtI2IA-iEusaF9VVDeG3-44" value="&lt;span style=&quot;font-size: 24px&quot;&gt;&amp;lt;SCRIPT&amp;gt;&lt;/span&gt;" style="rounded=0;whiteSpace=wrap;html=1;" parent="1" vertex="1">
          <mxGeometry x="530" y="380" width="130" height="50" as="geometry" />
        </mxCell>
        <mxCell id="AtI2IA-iEusaF9VVDeG3-45" value="" style="endArrow=none;html=1;entryX=0.5;entryY=1;entryDx=0;entryDy=0;exitX=0.5;exitY=0;exitDx=0;exitDy=0;" parent="1" source="AtI2IA-iEusaF9VVDeG3-41" target="AtI2IA-iEusaF9VVDeG3-23" edge="1">
          <mxGeometry width="50" height="50" relative="1" as="geometry">
            <mxPoint x="400" y="440" as="sourcePoint" />
            <mxPoint x="450" y="390" as="targetPoint" />
          </mxGeometry>
        </mxCell>
        <mxCell id="AtI2IA-iEusaF9VVDeG3-46" value="" style="endArrow=none;html=1;entryX=0.5;entryY=0;entryDx=0;entryDy=0;exitX=0.5;exitY=1;exitDx=0;exitDy=0;" parent="1" source="AtI2IA-iEusaF9VVDeG3-23" target="AtI2IA-iEusaF9VVDeG3-44" edge="1">
          <mxGeometry width="50" height="50" relative="1" as="geometry">
            <mxPoint x="395" y="390" as="sourcePoint" />
            <mxPoint x="395" y="350" as="targetPoint" />
          </mxGeometry>
        </mxCell>
        <mxCell id="AtI2IA-iEusaF9VVDeG3-47" value="" style="endArrow=none;html=1;entryX=0.5;entryY=0;entryDx=0;entryDy=0;exitX=0.5;exitY=1;exitDx=0;exitDy=0;" parent="1" source="AtI2IA-iEusaF9VVDeG3-41" target="AtI2IA-iEusaF9VVDeG3-49" edge="1">
          <mxGeometry width="50" height="50" relative="1" as="geometry">
            <mxPoint x="395" y="390" as="sourcePoint" />
            <mxPoint x="385" y="470" as="targetPoint" />
          </mxGeometry>
        </mxCell>
        <mxCell id="AtI2IA-iEusaF9VVDeG3-49" value="&lt;span style=&quot;font-size: 24px&quot;&gt;&amp;lt;head&amp;gt;&lt;/span&gt;" style="rounded=0;whiteSpace=wrap;html=1;" parent="1" vertex="1">
          <mxGeometry x="280" y="470" width="130" height="50" as="geometry" />
        </mxCell>
        <mxCell id="AtI2IA-iEusaF9VVDeG3-50" value="&lt;span style=&quot;font-size: 24px&quot;&gt;&amp;lt;div&amp;gt;&lt;/span&gt;" style="rounded=0;whiteSpace=wrap;html=1;" parent="1" vertex="1">
          <mxGeometry x="520" y="470" width="130" height="50" as="geometry" />
        </mxCell>
        <mxCell id="AtI2IA-iEusaF9VVDeG3-51" value="" style="endArrow=none;html=1;entryX=0.5;entryY=0;entryDx=0;entryDy=0;exitX=0.5;exitY=1;exitDx=0;exitDy=0;" parent="1" source="AtI2IA-iEusaF9VVDeG3-41" target="AtI2IA-iEusaF9VVDeG3-50" edge="1">
          <mxGeometry width="50" height="50" relative="1" as="geometry">
            <mxPoint x="395" y="440" as="sourcePoint" />
            <mxPoint x="355" y="480" as="targetPoint" />
          </mxGeometry>
        </mxCell>
        <mxCell id="AtI2IA-iEusaF9VVDeG3-52" value="&lt;span style=&quot;font-size: 24px&quot;&gt;&amp;lt;h2&amp;gt;&lt;/span&gt;" style="rounded=0;whiteSpace=wrap;html=1;" parent="1" vertex="1">
          <mxGeometry x="280" y="560" width="130" height="50" as="geometry" />
        </mxCell>
        <mxCell id="AtI2IA-iEusaF9VVDeG3-53" value="" style="endArrow=none;html=1;entryX=0.5;entryY=1;entryDx=0;entryDy=0;exitX=0.5;exitY=0;exitDx=0;exitDy=0;" parent="1" source="AtI2IA-iEusaF9VVDeG3-52" target="AtI2IA-iEusaF9VVDeG3-49" edge="1">
          <mxGeometry width="50" height="50" relative="1" as="geometry">
            <mxPoint x="395" y="440" as="sourcePoint" />
            <mxPoint x="355" y="480" as="targetPoint" />
          </mxGeometry>
        </mxCell>
        <mxCell id="AtI2IA-iEusaF9VVDeG3-54" value="&lt;span style=&quot;font-size: 24px&quot;&gt;&amp;lt;aside&amp;gt;&lt;/span&gt;" style="rounded=0;whiteSpace=wrap;html=1;" parent="1" vertex="1">
          <mxGeometry x="450" y="560" width="130" height="50" as="geometry" />
        </mxCell>
        <mxCell id="AtI2IA-iEusaF9VVDeG3-55" value="&lt;span style=&quot;font-size: 24px&quot;&gt;&amp;lt;section&amp;gt;&lt;/span&gt;" style="rounded=0;whiteSpace=wrap;html=1;" parent="1" vertex="1">
          <mxGeometry x="810" y="540" width="140" height="50" as="geometry" />
        </mxCell>
        <mxCell id="AtI2IA-iEusaF9VVDeG3-57" value="" style="endArrow=none;html=1;entryX=0.5;entryY=1;entryDx=0;entryDy=0;exitX=0.5;exitY=0;exitDx=0;exitDy=0;" parent="1" source="AtI2IA-iEusaF9VVDeG3-54" target="AtI2IA-iEusaF9VVDeG3-50" edge="1">
          <mxGeometry width="50" height="50" relative="1" as="geometry">
            <mxPoint x="400" y="640" as="sourcePoint" />
            <mxPoint x="450" y="590" as="targetPoint" />
          </mxGeometry>
        </mxCell>
        <mxCell id="AtI2IA-iEusaF9VVDeG3-58" value="" style="endArrow=none;html=1;entryX=0.5;entryY=1;entryDx=0;entryDy=0;exitX=0.5;exitY=0;exitDx=0;exitDy=0;" parent="1" source="AtI2IA-iEusaF9VVDeG3-55" target="AtI2IA-iEusaF9VVDeG3-50" edge="1">
          <mxGeometry width="50" height="50" relative="1" as="geometry">
            <mxPoint x="400" y="640" as="sourcePoint" />
            <mxPoint x="450" y="590" as="targetPoint" />
          </mxGeometry>
        </mxCell>
        <mxCell id="AtI2IA-iEusaF9VVDeG3-60" value="&lt;span style=&quot;font-size: 24px&quot;&gt;&amp;lt;ul&amp;gt;&lt;/span&gt;" style="rounded=0;whiteSpace=wrap;html=1;" parent="1" vertex="1">
          <mxGeometry x="450" y="640" width="130" height="50" as="geometry" />
        </mxCell>
        <mxCell id="AtI2IA-iEusaF9VVDeG3-61" value="" style="endArrow=none;html=1;entryX=0.5;entryY=1;entryDx=0;entryDy=0;exitX=0.5;exitY=0;exitDx=0;exitDy=0;" parent="1" source="AtI2IA-iEusaF9VVDeG3-60" target="AtI2IA-iEusaF9VVDeG3-54" edge="1">
          <mxGeometry width="50" height="50" relative="1" as="geometry">
            <mxPoint x="400" y="650" as="sourcePoint" />
            <mxPoint x="450" y="600" as="targetPoint" />
          </mxGeometry>
        </mxCell>
        <mxCell id="AtI2IA-iEusaF9VVDeG3-62" value="&lt;span style=&quot;font-size: 24px&quot;&gt;&amp;lt;nav&amp;gt;&lt;/span&gt;" style="rounded=0;whiteSpace=wrap;html=1;" parent="1" vertex="1">
          <mxGeometry x="450" y="730" width="130" height="50" as="geometry" />
        </mxCell>
        <mxCell id="AtI2IA-iEusaF9VVDeG3-63" value="" style="endArrow=none;html=1;entryX=0.5;entryY=1;entryDx=0;entryDy=0;exitX=0.5;exitY=0;exitDx=0;exitDy=0;" parent="1" source="AtI2IA-iEusaF9VVDeG3-62" target="AtI2IA-iEusaF9VVDeG3-60" edge="1">
          <mxGeometry width="50" height="50" relative="1" as="geometry">
            <mxPoint x="400" y="650" as="sourcePoint" />
            <mxPoint x="450" y="600" as="targetPoint" />
          </mxGeometry>
        </mxCell>
        <mxCell id="UNctcIhSLstRPXyjaCPA-1" value="&lt;span style=&quot;font-size: 24px&quot;&gt;&amp;lt;a&amp;gt;&lt;/span&gt;" style="rounded=0;whiteSpace=wrap;html=1;" vertex="1" parent="1">
          <mxGeometry x="450" y="810" width="130" height="50" as="geometry" />
        </mxCell>
        <mxCell id="UNctcIhSLstRPXyjaCPA-2" value="" style="endArrow=none;html=1;exitX=0.5;exitY=1;exitDx=0;exitDy=0;entryX=0.5;entryY=0;entryDx=0;entryDy=0;" edge="1" parent="1" source="AtI2IA-iEusaF9VVDeG3-62" target="UNctcIhSLstRPXyjaCPA-1">
          <mxGeometry width="50" height="50" relative="1" as="geometry">
            <mxPoint x="620" y="730" as="sourcePoint" />
            <mxPoint x="670" y="680" as="targetPoint" />
          </mxGeometry>
        </mxCell>
        <mxCell id="UNctcIhSLstRPXyjaCPA-3" value="&lt;span style=&quot;font-size: 24px&quot;&gt;&amp;lt;div&amp;gt;&lt;/span&gt;" style="rounded=0;whiteSpace=wrap;html=1;" vertex="1" parent="1">
          <mxGeometry x="450" y="900" width="130" height="50" as="geometry" />
        </mxCell>
        <mxCell id="UNctcIhSLstRPXyjaCPA-4" value="" style="endArrow=none;html=1;exitX=0.5;exitY=1;exitDx=0;exitDy=0;entryX=0.5;entryY=0;entryDx=0;entryDy=0;" edge="1" parent="1" source="UNctcIhSLstRPXyjaCPA-1" target="UNctcIhSLstRPXyjaCPA-3">
          <mxGeometry width="50" height="50" relative="1" as="geometry">
            <mxPoint x="620" y="880" as="sourcePoint" />
            <mxPoint x="670" y="830" as="targetPoint" />
          </mxGeometry>
        </mxCell>
        <mxCell id="UNctcIhSLstRPXyjaCPA-5" value="&lt;span style=&quot;font-size: 24px&quot;&gt;class=&quot;item&quot;&lt;/span&gt;" style="rounded=0;whiteSpace=wrap;html=1;" vertex="1" parent="1">
          <mxGeometry x="690" y="610" width="140" height="50" as="geometry" />
        </mxCell>
        <mxCell id="UNctcIhSLstRPXyjaCPA-6" value="&lt;span style=&quot;font-size: 24px&quot;&gt;class=&quot;item-noti&quot;&lt;/span&gt;" style="rounded=0;whiteSpace=wrap;html=1;" vertex="1" parent="1">
          <mxGeometry x="880" y="610" width="210" height="50" as="geometry" />
        </mxCell>
        <mxCell id="UNctcIhSLstRPXyjaCPA-7" value="" style="endArrow=none;html=1;entryX=0.5;entryY=1;entryDx=0;entryDy=0;exitX=0.5;exitY=0;exitDx=0;exitDy=0;" edge="1" parent="1" source="UNctcIhSLstRPXyjaCPA-5" target="AtI2IA-iEusaF9VVDeG3-55">
          <mxGeometry width="50" height="50" relative="1" as="geometry">
            <mxPoint x="620" y="880" as="sourcePoint" />
            <mxPoint x="670" y="830" as="targetPoint" />
          </mxGeometry>
        </mxCell>
        <mxCell id="UNctcIhSLstRPXyjaCPA-8" value="" style="endArrow=none;html=1;entryX=0.5;entryY=0;entryDx=0;entryDy=0;exitX=0.5;exitY=1;exitDx=0;exitDy=0;" edge="1" parent="1" source="AtI2IA-iEusaF9VVDeG3-55" target="UNctcIhSLstRPXyjaCPA-6">
          <mxGeometry width="50" height="50" relative="1" as="geometry">
            <mxPoint x="685.0000000000002" y="650" as="sourcePoint" />
            <mxPoint x="780.0000000000002" y="620" as="targetPoint" />
          </mxGeometry>
        </mxCell>
        <mxCell id="UNctcIhSLstRPXyjaCPA-17" value="&lt;span style=&quot;font-size: 24px&quot;&gt;class=&quot;statusservicos&lt;/span&gt;&lt;span style=&quot;font-size: 24px&quot;&gt;&quot;&lt;/span&gt;" style="rounded=0;whiteSpace=wrap;html=1;" vertex="1" parent="1">
          <mxGeometry x="740" y="700" width="265" height="50" as="geometry" />
        </mxCell>
        <mxCell id="UNctcIhSLstRPXyjaCPA-18" value="&lt;span style=&quot;font-size: 24px&quot;&gt;class=&quot;item-status&quot;&lt;/span&gt;" style="rounded=0;whiteSpace=wrap;html=1;" vertex="1" parent="1">
          <mxGeometry x="1040" y="700" width="210" height="50" as="geometry" />
        </mxCell>
        <mxCell id="UNctcIhSLstRPXyjaCPA-19" value="" style="endArrow=none;html=1;entryX=0.5;entryY=1;entryDx=0;entryDy=0;exitX=0.5;exitY=0;exitDx=0;exitDy=0;" edge="1" parent="1" source="UNctcIhSLstRPXyjaCPA-17" target="UNctcIhSLstRPXyjaCPA-6">
          <mxGeometry width="50" height="50" relative="1" as="geometry">
            <mxPoint x="930" y="720" as="sourcePoint" />
            <mxPoint x="940" y="680" as="targetPoint" />
          </mxGeometry>
        </mxCell>
        <mxCell id="UNctcIhSLstRPXyjaCPA-20" value="" style="endArrow=none;html=1;entryX=0.5;entryY=1;entryDx=0;entryDy=0;exitX=0.5;exitY=0;exitDx=0;exitDy=0;" edge="1" parent="1" source="UNctcIhSLstRPXyjaCPA-18" target="UNctcIhSLstRPXyjaCPA-6">
          <mxGeometry width="50" height="50" relative="1" as="geometry">
            <mxPoint x="890" y="730" as="sourcePoint" />
            <mxPoint x="940" y="680" as="targetPoint" />
          </mxGeometry>
        </mxCell>
      </root>
    </mxGraphModel>
  </diagram>
</mxfile>
